# xmcd
#
# Track frame offsets:
#	182
#	13082
#	24052
#	33320
#	43137
#	54230
#	66485
#	76740
#	86842
#	98802
#	111625
#	122835
#	134312
#	143157
#	154870
#	165390
#	175760
#	189672
#	199215
#	210370
#	221312
#	231912
#
# Disc length: 3242
#
# Revision: 3
# Processed by: cddbd v1.5.1PL0 Copyright (c) Steve Scherf et al.
# Submitted via: ExactAudioCopy v0.90b4
# Normalized: r2:DSETVAR1,TDELIM( - )
#
DISCID=2d0ca816
DTITLE=Various Artist - Teen Idols II
DYEAR=1900
DGENRE=
TTITLE0=DiMucci Dion - Donna the Prima Donna
TTITLE1=Sedaka Neil - Next Door to an Angel
TTITLE2=Vee Bobby - Sharing You
TTITLE3=Holly Buddy - Heartbeat
TTITLE4=Hunter Tab - Young Love
TTITLE5=Boone Pat - April Love
TTITLE6=Fabian - Hound Dog Man
TTITLE7=Francis Connie - Stupid Cupid
TTITLE8=Avalon Frankie - Bobby Sox to Stockings
TTITLE9=Tillotson Johnny - It Keeps Right On a-Hurtin'
TTITLE10=Renay Diane - Navy Blue
TTITLE11=Darin Bobby - Things
TTITLE12=Burnette Johnny - Little Boy Sad
TTITLE13=Petersen Paul - She Can't Find Her Keys
TTITLE14=Thompson Sue - Norman
TTITLE15=Boone Pat - Don't Forbid Me
TTITLE16=Lee Brenda - I Want to Be Wanted
TTITLE17=Byrnes Ed and Stevens Connie - Kookie, Kookie (Lend Me Your Comb)
TTITLE18=Stevens Dodie - Pink Shoe Laces
TTITLE19=Darren James - Goodbye Cruel World
TTITLE20=Dick and Dee Dee - Young and in Love
TTITLE21=Paul and Paula - Young Lovers
EXTD=
EXTT0=
EXTT1=
EXTT2=
EXTT3=
EXTT4=
EXTT5=
EXTT6=
EXTT7=
EXTT8=
EXTT9=
EXTT10=
EXTT11=
EXTT12=
EXTT13=
EXTT14=
EXTT15=
EXTT16=
EXTT17=
EXTT18=
EXTT19=
EXTT20=
EXTT21=
PLAYORDER=
